<svg xmlns="http://www.w3.org/2000/svg" xmlns:xlink="http://www.w3.org/1999/xlink" width="23.455" height="24" viewBox="0 0 23.455 24">
  <defs>
    <clipPath id="clip-path">
      <path id="Path_43" data-name="Path 43" d="M25.182,11.818H14v4.636h6.436c-.6,2.945-3.109,4.636-6.436,4.636A7.091,7.091,0,1,1,14,6.909a6.937,6.937,0,0,1,4.418,1.582L21.909,5A11.992,11.992,0,1,0,14,26c6,0,11.455-4.364,11.455-12A9.955,9.955,0,0,0,25.182,11.818Z" transform="translate(-2 -2)"/>
    </clipPath>
  </defs>
  <g id="Google__G__Logo" data-name="Google_&quot;G&quot;_Logo" transform="translate(-2 -2)">
    <g id="Group_7" data-name="Group 7" transform="translate(2 2)" clip-path="url(#clip-path)">
      <path id="Path_42" data-name="Path 42" d="M0,25.182V11l9.273,7.091Z" transform="translate(-1.091 -6.091)" fill="#fbbc05"/>
    </g>
    <g id="Group_8" data-name="Group 8" transform="translate(2 2)" clip-path="url(#clip-path)">
      <path id="Path_44" data-name="Path 44" d="M0,6l9.273,7.091,3.818-3.327L26.182,7.636V0H0Z" transform="translate(-1.091 -1.091)" fill="#ea4335"/>
    </g>
    <g id="Group_9" data-name="Group 9" transform="translate(2 2)" clip-path="url(#clip-path)">
      <path id="Path_46" data-name="Path 46" d="M0,20.182,16.364,7.636l4.309.545L26.182,0V26.182H0Z" transform="translate(-1.091 -1.091)" fill="#34a853"/>
    </g>
    <g id="Group_10" data-name="Group 10" transform="translate(2 2)" clip-path="url(#clip-path)">
      <path id="Path_48" data-name="Path 48" d="M32.091,31.182,15.182,18.091,13,16.455,32.091,11Z" transform="translate(-7 -6.091)" fill="#4285f4"/>
    </g>
  </g>
</svg>
