<svg id="_ÎÓÈ_1" data-name="—ÎÓÈ_1" xmlns="http://www.w3.org/2000/svg" width="1600.187" height="962.287" viewBox="0 0 1600.187 962.287">
  <path id="Path_129" data-name="Path 129" d="M44.368,1.432a13.236,13.236,0,0,1,11.977,0c2.486,1.435,3.1,3.539,1.851,5.307L243.617,113.794V248.927l45.17,26.08V421.994l154.735,89.343,24.112-13.922-119.32-68.888V347.946l.475-.267,135.663-78.323V242.022l-76.718-44.293a13.393,13.393,0,0,1-10.935-.493,3.651,3.651,0,0,1,0-6.915,13.236,13.236,0,0,1,11.977,0c2.982,1.723,3.248,4.4.854,6.313l76.72,44.3v29.5l-.472.267L350.215,349.021v78.387l90.143,52.051V445.917l-41.338-23.861a13.393,13.393,0,0,1-10.935-.491,3.651,3.651,0,0,1,0-6.915,13.236,13.236,0,0,1,11.977,0c2.982,1.723,3.248,4.4.851,6.313l41.338,23.861v35.759l27.267,15.735L501.763,477.7V419.247l-60.807-35.113V343.711l.475-.267,128.03-73.918c-2.4-1.912-2.134-4.59.851-6.313a13.236,13.236,0,0,1,11.977,0,3.651,3.651,0,0,1,0,6.915,13.393,13.393,0,0,1-10.934.491L442.85,344.812V383.03l58.921,34.017v-40.3l.475-.267,78.331-45.224c-2.4-1.91-2.134-4.59.851-6.31a13.236,13.236,0,0,1,11.977,0,3.648,3.648,0,0,1,0,6.913,13.383,13.383,0,0,1-10.935.493l-78.806,45.5v98.758l22.648-13.068,37.313,21.544,33.8-19.514V418.143l.475-.267,89.343-51.584v-44.7a11.761,11.761,0,0,1-5.041-1.379,3.651,3.651,0,0,1,0-6.915,13.236,13.236,0,0,1,11.977,0,3.651,3.651,0,0,1,0,6.915,11.76,11.76,0,0,1-5.041,1.379v45.792l-.475.267L599.32,419.236v45.229l145.416-83.956v-89l-78.865-45.53H593.5l-.219-.125L469.1,174.153a13.394,13.394,0,0,1-10.935-.491,3.651,3.651,0,0,1,0-6.915,13.236,13.236,0,0,1,11.977,0c2.982,1.723,3.248,4.4.853,6.313l123.022,71.024h68.581L434.457,112.367a13.4,13.4,0,0,1-10.935-.493,3.651,3.651,0,0,1,0-6.915,13.231,13.231,0,0,1,11.975,0c2.984,1.723,3.251,4.4.854,6.313L746.641,290.433v91.184l-.475.267L565.53,486.161l36.359,20.992L910.291,329.1V222.854l.475-.267,104.878-60.54c-2.4-1.912-2.134-4.59.853-6.313a13.236,13.236,0,0,1,11.977,0,3.651,3.651,0,0,1,0,6.915,13.394,13.394,0,0,1-10.935.491L912.2,223.967V330.213l-.472.267L603.793,508.262l34.615,19.986,304.978-176.1h181.887l113.674-65.629V185.661a10.67,10.67,0,0,1-3.288-1.157,3.651,3.651,0,0,1,0-6.915,13.255,13.255,0,0,1,11.977,0,3.651,3.651,0,0,1,0,6.915,12.58,12.58,0,0,1-6.793,1.387V287.614l-.474.267L1125.779,354.04H943.892L686.432,502.686h51.792l87.868-50.731H893.78l.219.128,93.877,54.2a13.383,13.383,0,0,1,10.935.493,3.648,3.648,0,0,1,0,6.913,13.231,13.231,0,0,1-11.975,0c-2.984-1.72-3.251-4.4-.853-6.313l-92.7-53.521H826.6L738.728,504.59H683.154l-42.861,24.747,92.386,53.339,26.272-15.17V527.691L825.7,489.164c-2.4-1.912-2.134-4.59.851-6.313a13.236,13.236,0,0,1,11.977,0,3.651,3.651,0,0,1,0,6.915,13.394,13.394,0,0,1-10.935.491l-66.735,38.53v37.62l71.168-41.09H865.7l.221.128,40.178,23.2a13.394,13.394,0,0,1,10.935.491,3.651,3.651,0,0,1,0,6.915,13.236,13.236,0,0,1-11.977,0c-2.982-1.723-3.248-4.4-.851-6.313L865.2,527.219H832.515l-97.95,56.54,17.794,10.273L695.574,626.82l26.587,15.348h40.223l28.774-16.61c-2.294-1.907-1.984-4.534.957-6.238a13.236,13.236,0,0,1,11.977,0,3.651,3.651,0,0,1,0,6.915,13.37,13.37,0,0,1-11.063.429l-30.137,17.4H725.455l67.81,39.151,159.546-92.109h114.8l.219.128,64.634,37.316a13.4,13.4,0,0,1,10.935.491,3.651,3.651,0,0,1,0,6.915,13.23,13.23,0,0,1-11.975,0c-2.984-1.723-3.251-4.4-.854-6.313L1067.1,593H953.317L830.264,664.045h52.673l51.486-29.721c-2.4-1.912-2.134-4.592.851-6.313a13.236,13.236,0,0,1,11.977,0,3.651,3.651,0,0,1,0,6.915,13.394,13.394,0,0,1-10.935.491l-52.867,30.523H826.983l-31.822,18.373,81,46.765h258.869L1336.144,614.97c-2.4-1.912-2.134-4.59.851-6.313a13.236,13.236,0,0,1,11.977,0,3.651,3.651,0,0,1,0,6.915,13.393,13.393,0,0,1-10.935.491l-202.5,116.914h-256.1l32.134,18.549H1103.2l.219.128,94.5,54.569a13.388,13.388,0,0,1,10.935.491,3.651,3.651,0,0,1,0,6.915,13.236,13.236,0,0,1-11.977,0c-2.982-1.723-3.249-4.4-.851-6.313l-93.344-53.886H911.059l-.219-.128L693.686,627.918,669.576,641.84,897.89,773.655h166.973l.219.128,201.684,116.45h279.41l54.011-31.19v2.192l-53.5,30.889H1266.256l-.219-.128-126.566-73.075v43.25l83.425,48.168a13.388,13.388,0,0,1,10.935.491,3.651,3.651,0,0,1,0,6.915,13.254,13.254,0,0,1-11.977,0c-2.982-1.723-3.249-4.4-.854-6.313l-83.425-48.168V818.076H1138l-73.648-42.522H897.38l-.216-.128L667.683,642.936l-27.384,15.8,445.274,257.1v46.451h-1.9v-45.37L638.4,659.839l-33.838,19.536,229.69,132.612V835.7l40.722,23.509v54.529l78.974,45.592a13.382,13.382,0,0,1,10.935.493,4.888,4.888,0,0,1,2.288,2.454H950.659a4.3,4.3,0,0,1,1.4-1.853l-78.974-45.605V860.3l-38.826-22.416V925.2l-22.917,13.234,41.3,23.84h-3.79l-39.4-22.746-39.4,22.746h-3.79l66.109-38.17V813.078L602.678,680.466l-30.8,17.786L734.41,792.089a13.388,13.388,0,0,1,10.935.491,3.651,3.651,0,0,1,0,6.915,13.236,13.236,0,0,1-11.977,0c-2.982-1.723-3.248-4.4-.854-6.313L569.968,699.337l-29.737,17.17L734.666,828.762h52.846a4.852,4.852,0,0,1,2.318-2.507,13.236,13.236,0,0,1,11.977,0,3.648,3.648,0,0,1,0,6.913,13.236,13.236,0,0,1-11.977,0,4.855,4.855,0,0,1-2.318-2.51H734.173l-.221-.128L538.351,717.6l-12,6.934-9.238-5.334-46.589,26.9v37.431l38.49,22.221v-.1h60.377l.221.128,66.269,38.263a13.4,13.4,0,0,1,10.935.491,3.651,3.651,0,0,1,0,6.915,13.236,13.236,0,0,1-11.977,0c-2.982-1.723-3.248-4.4-.851-6.313l-65.114-37.575h-56.78l113.159,65.319a13.358,13.358,0,0,1,11.169.381,3.651,3.651,0,0,1,0,6.916,13.237,13.237,0,0,1-11.977,0c-2.91-1.68-3.254-4.267-1.043-6.177L482.267,792.516v18.01l83.964,48.48v34.228L634.6,932.7a13.382,13.382,0,0,1,10.935.493,3.649,3.649,0,0,1,0,6.913,13.23,13.23,0,0,1-11.975,0c-2.984-1.72-3.251-4.4-.853-6.31L564.34,894.33V860.1l-83.967-48.48v-20.2l-11.761-6.79V745.011l46.587-26.9-30.614-17.677-95.861,55.345V818.7l65.09,37.578a13.358,13.358,0,0,1,11.169.381,3.651,3.651,0,0,1,0,6.916,13.236,13.236,0,0,1-11.977,0c-2.91-1.68-3.254-4.267-1.043-6.177l-63.239-36.511v50.827l49.96,28.843v61.714h-1.9v-60.62l-48.064-27.736v88.37h-1.9V754.7l95.861-55.345-34.377-19.848L323.02,751.818V924.1l-60.225,34.772v3.4h-1.9v-4.489l60.225-34.772V750.724l125.289-72.333L420.935,663.68,251.85,761.291V908.278l-93.48,53.971h-3.79l95.373-55.065V760.221L419.039,662.61l-41.3-23.84L96.418,801.188V874.33L.008,929.984v-2.19l94.517-54.569V800.09l158.239-91.36H127.62L.008,782.4v-2.187l127.1-73.387H256.037L375.85,637.671l-48.005-27.71L224.876,669.408H59.524L.008,703.77v-2.187l13.047-7.534H.008v-1.9h16.33l42.672-24.643H224.361l28.817-16.637h-70.3l-.219-.128L147.4,630.385H.488L0,630.668v-2.179H144.12l-39.7-22.917a13.4,13.4,0,0,1-10.935-.493,3.648,3.648,0,0,1,0-6.913,13.221,13.221,0,0,1,11.978,0c2.984,1.72,3.248,4.4.851,6.313l77.075,44.5h73.075l69.493-40.108-25.68-14.828,16.535-9.54H268.779l-62.788,36.252c2.4,1.912,2.134,4.59-.851,6.313a13.236,13.236,0,0,1-11.977,0,3.651,3.651,0,0,1,0-6.916,13.394,13.394,0,0,1,10.935-.491L268.275,582.6h51.814l35.143-20.288-21.6-12.479H295.292l-33.7-19.469H236.44l-56.806,32.8c2.55,1.918,2.339,4.664-.7,6.419a13.231,13.231,0,0,1-11.975,0,3.651,3.651,0,0,1,0-6.915,13.428,13.428,0,0,1,10.751-.579l58.22-33.6h26.163l33.7,19.469h34.543l-69.09-39.906H223.94l-77.761,44.9H.008v-1.9H145.672l77.761-44.9h38.322l.219.128,95.152,54.939,24.968-14.415L274.572,484.721H198.734L136.17,520.842H.008v-1.9H135.663l59.281-34.225H.008v-1.894H275.079l.221.128L383.99,545.707l28.366-16.375L262.419,442.767H.008v-1.9H191.229L.008,330.458v-2.19L195.022,440.863H261.04L118.891,358.787V340.7L50.883,301.426a13.391,13.391,0,0,1-10.935-.493,3.651,3.651,0,0,1,0-6.915,13.223,13.223,0,0,1,11.975,0c2.984,1.72,3.251,4.4.853,6.31l37.039,21.384V272.148L.008,220.31v-2.19L91.69,271.052v51.763l29.086,16.8v18.09L264.1,440.455l-.477.824,150.628,86.964,27.387-15.812L286.9,423.088V276.1L.008,110.468v-2.19L241.723,247.833V114.888L56.721,8.078c-.131.088-.232.187-.376.267a13.236,13.236,0,0,1-11.978,0,3.651,3.651,0,0,1,0-6.913Zm259.706,592.6L526.331,722.356,748.58,594.037,526.323,465.716Z" transform="translate(0 0)" fill="#fff"/>
</svg>
