<svg xmlns="http://www.w3.org/2000/svg" width="17" height="17" viewBox="0 0 17 17">
  <path id="Path_288" data-name="Path 288" d="M16.976,9.1H15.762V5.857a1.624,1.624,0,0,0-1.619-1.619H10.9V3.024a2.024,2.024,0,1,0-4.048,0V4.238H3.619A1.617,1.617,0,0,0,2.008,5.857V8.933H3.214a2.186,2.186,0,0,1,0,4.371H2v3.076A1.624,1.624,0,0,0,3.619,18H6.7V16.786a2.186,2.186,0,0,1,4.371,0V18h3.076a1.624,1.624,0,0,0,1.619-1.619V13.143h1.214a2.024,2.024,0,0,0,0-4.048Z" transform="translate(-2 -1)" fill="#818992"/>
</svg>
