<svg xmlns="http://www.w3.org/2000/svg" width="53.715" height="40" viewBox="0 0 53.715 40">
  <g id="unify-icon-white-1" transform="translate(0.007 0.007)">
    <g id="Layer_1" data-name="Layer 1" transform="translate(-0.007 -0.007)">
      <path id="Path_40" data-name="Path 40" d="M97.239,14.735a14.2,14.2,0,0,1-4.279,10.387L80.523,37.553,73.668,30.7,86.1,18.268a4.737,4.737,0,0,0,1.445-3.532A4.738,4.738,0,0,0,86.1,11.2a4.6,4.6,0,0,0-3.464-1.377,4.737,4.737,0,0,0-3.526,1.445L66.672,23.708l-7.034-6.959L72.112,4.281a14.73,14.73,0,0,1,20.773,0,14.287,14.287,0,0,1,4.354,10.455Z" transform="translate(-43.525 0.007)" fill="#fff"/>
      <path id="Path_41" data-name="Path 41" d="M37.559,29.847,25.122,42.284a14.209,14.209,0,0,1-10.387,4.286A14.209,14.209,0,0,1,4.349,42.284,14.322,14.322,0,0,1,0,31.829,14.185,14.185,0,0,1,4.281,21.442L16.711,9.005l6.861,6.854L11.135,28.3a5.032,5.032,0,0,0,0,7.058A4.589,4.589,0,0,0,14.6,36.738a4.766,4.766,0,0,0,3.532-1.451L30.562,22.856Z" transform="translate(0.007 -6.571)" fill="#212d3d"/>
    </g>
  </g>
</svg>
